<svg width="18" height="18" viewBox="0 0 18 18" fill="none" xmlns="http://www.w3.org/2000/svg">
<path fill-rule="evenodd" clip-rule="evenodd" d="M5.33333 0.75C5.83959 0.75 6.25 1.16041 6.25 1.66667C6.25 2.13677 5.89613 2.52421 5.44024 2.57717L5.33333 2.58333H3.5C3.0299 2.58333 2.64245 2.9372 2.5895 3.3931L2.58333 3.5V5.33333C2.58333 5.83959 2.17293 6.25 1.66667 6.25C1.19657 6.25 0.809118 5.89613 0.756167 5.44024L0.75 5.33333V3.5C0.75 2.03546 1.89484 0.838311 3.33842 0.754668L3.5 0.75H5.33333ZM1.66667 11.75C2.13677 11.75 2.52421 12.1039 2.57717 12.5598L2.58333 12.6667V14.5C2.58333 14.9701 2.9372 15.3575 3.3931 15.4105L3.5 15.4167H5.33333C5.83959 15.4167 6.25 15.8271 6.25 16.3333C6.25 16.8034 5.89613 17.1909 5.44024 17.2438L5.33333 17.25H3.5C2.03546 17.25 0.838311 16.1052 0.754668 14.6616L0.75 14.5V12.6667C0.75 12.1604 1.16041 11.75 1.66667 11.75ZM17.2453 3.33842C17.1617 1.89484 15.9645 0.75 14.5 0.75H12.6667L12.5598 0.756167C12.1039 0.809118 11.75 1.19657 11.75 1.66667C11.75 2.17293 12.1604 2.58333 12.6667 2.58333H14.5L14.6069 2.5895C15.0628 2.64245 15.4167 3.0299 15.4167 3.5V5.33333L15.4228 5.44024C15.4758 5.89613 15.8632 6.25 16.3333 6.25C16.8396 6.25 17.25 5.83959 17.25 5.33333V3.5L17.2453 3.33842ZM16.3333 11.75C16.8034 11.75 17.1909 12.1039 17.2438 12.5598L17.25 12.6667V14.5C17.25 15.9645 16.1052 17.1617 14.6616 17.2453L14.5 17.25H12.6667C12.1604 17.25 11.75 16.8396 11.75 16.3333C11.75 15.8632 12.1039 15.4758 12.5598 15.4228L12.6667 15.4167H14.5C14.9701 15.4167 15.3575 15.0628 15.4105 14.6069L15.4167 14.5V12.6667C15.4167 12.1604 15.8271 11.75 16.3333 11.75ZM7.17583 7.16667C7.17583 6.66041 6.76543 6.25 6.25917 6.25L6.1431 6.25617C5.6872 6.30912 5.33333 6.69657 5.33333 7.16667C5.33333 7.67293 5.74374 8.08333 6.25 8.08333L6.36607 8.07717C6.82196 8.02421 7.17583 7.63677 7.17583 7.16667ZM11.7592 6.25C12.2654 6.25 12.6758 6.66041 12.6758 7.16667C12.6758 7.63677 12.322 8.02421 11.8661 8.07717L11.75 8.08333C11.2437 8.08333 10.8333 7.67293 10.8333 7.16667C10.8333 6.69657 11.1872 6.30912 11.6431 6.25617L11.7592 6.25ZM11.9332 11.0952C11.5716 10.7409 10.9912 10.7469 10.6369 11.1085C10.2059 11.5484 9.6159 11.7963 9 11.7963C8.3841 11.7963 7.79413 11.5484 7.36309 11.1085C7.00879 10.7469 6.42841 10.7409 6.0668 11.0952C5.70518 11.4495 5.69926 12.0299 6.05357 12.3915C6.82944 13.1834 7.89139 13.6296 9 13.6296C10.1086 13.6296 11.1706 13.1834 11.9464 12.3915C12.3007 12.0299 12.2948 11.4495 11.9332 11.0952Z" fill="black"/>
</svg>
