<svg width="22" height="22" viewBox="0 0 22 22" fill="none" xmlns="http://www.w3.org/2000/svg">
<path fill-rule="evenodd" clip-rule="evenodd" d="M10.7911 8.24967C10.7911 6.43965 11.526 4.75238 12.7974 3.54502L14.121 2.28811L12.3423 1.97011C11.8333 1.8791 11.3148 1.83301 10.7911 1.83301C5.84386 1.83301 1.83334 5.93706 1.83334 10.9997C1.83334 16.0623 5.84386 20.1663 10.7911 20.1663C13.8236 20.1663 16.5995 18.6115 18.2498 16.0776L19.25 14.5419L17.4499 14.6543C17.3211 14.6623 17.1915 14.6663 17.0615 14.6663C13.5984 14.6663 10.7911 11.7935 10.7911 8.24967ZM10.7911 18.333C6.8333 18.333 3.62489 15.0498 3.62489 10.9997C3.62489 7.10192 6.59648 3.91441 10.3478 3.68014C9.48028 5.01245 8.99953 6.59219 8.99953 8.24967C8.99953 12.3188 11.8783 15.6998 15.6654 16.3764C14.3633 17.6137 12.6372 18.333 10.7911 18.333Z" fill="#111111"/>
</svg>
