<svg width="22" height="22" viewBox="0 0 22 22" fill="none" xmlns="http://www.w3.org/2000/svg">
<path fill-rule="evenodd" clip-rule="evenodd" d="M11 21.0837C5.43109 21.0837 0.916626 16.5692 0.916626 11.0003C0.916626 5.43145 5.43109 0.916992 11 0.916992C16.5688 0.916992 21.0833 5.43145 21.0833 11.0003C21.0833 16.5692 16.5688 21.0837 11 21.0837ZM11 19.2503C15.5563 19.2503 19.25 15.5567 19.25 11.0003C19.25 6.44398 15.5563 2.75033 11 2.75033C6.44361 2.75033 2.74996 6.44398 2.74996 11.0003C2.74996 15.5567 6.44361 19.2503 11 19.2503ZM7.98147 15.3152L11 12.2967L14.0184 15.3152L15.3148 14.0188L12.2963 11.0003L15.3148 7.98184L14.0184 6.68548L11 9.70396L7.98147 6.68548L6.68511 7.98184L9.7036 11.0003L6.68511 14.0188L7.98147 15.3152Z" fill="white"/>
<mask id="mask0_0_1226" style="mask-type:luminance" maskUnits="userSpaceOnUse" x="0" y="0" width="22" height="22">
<path fill-rule="evenodd" clip-rule="evenodd" d="M11 21.0837C5.43109 21.0837 0.916626 16.5692 0.916626 11.0003C0.916626 5.43145 5.43109 0.916992 11 0.916992C16.5688 0.916992 21.0833 5.43145 21.0833 11.0003C21.0833 16.5692 16.5688 21.0837 11 21.0837ZM11 19.2503C15.5563 19.2503 19.25 15.5567 19.25 11.0003C19.25 6.44398 15.5563 2.75033 11 2.75033C6.44361 2.75033 2.74996 6.44398 2.74996 11.0003C2.74996 15.5567 6.44361 19.2503 11 19.2503ZM7.98147 15.3152L11 12.2967L14.0184 15.3152L15.3148 14.0188L12.2963 11.0003L15.3148 7.98184L14.0184 6.68548L11 9.70396L7.98147 6.68548L6.68511 7.98184L9.7036 11.0003L6.68511 14.0188L7.98147 15.3152Z" fill="white"/>
</mask>
<g mask="url(#mask0_0_1226)">
<rect width="22" height="22" fill="#888888"/>
</g>
</svg>
