<svg width="19" height="22" viewBox="0 0 19 22" fill="none" xmlns="http://www.w3.org/2000/svg">
<path fill-rule="evenodd" clip-rule="evenodd" d="M9.45899 0.916992C12.9989 0.916992 14.8815 1.94801 15.4124 2.29462C15.6483 2.39022 15.8027 2.61997 15.8027 2.87525C15.8008 3.04351 15.7322 3.20408 15.6121 3.32148C15.4919 3.43887 15.3301 3.50342 15.1624 3.50084C15.0237 3.50199 14.8883 3.45774 14.7768 3.37479C14.7762 3.37449 14.7737 3.37282 14.7694 3.36987C14.6456 3.2861 13.0014 2.17278 9.46025 2.17278C5.79431 2.17278 4.17008 3.37017 4.15208 3.38362C4.04296 3.45984 3.91321 3.50075 3.78025 3.50084C3.61271 3.50364 3.45095 3.43943 3.33067 3.32237C3.2104 3.20532 3.1415 3.04504 3.13918 2.87693C3.1398 2.6973 3.21745 2.52662 3.35231 2.40848C3.35577 2.40819 3.35903 2.4067 3.36153 2.40428C3.38519 2.38214 3.411 2.36244 3.43857 2.34546C3.85604 2.05598 5.74323 0.916992 9.45899 0.916992ZM1.38933 8.73154C1.27635 8.73257 1.16512 8.70358 1.06691 8.64752C0.921412 8.56545 0.81493 8.42811 0.771453 8.26641C0.727975 8.10472 0.751158 7.93227 0.835779 7.78791C1.64308 6.43591 4.09932 3.28026 9.45899 3.28026C11.7817 3.28026 13.8188 3.8924 15.5108 5.09904C16.9035 6.0893 17.684 7.21023 18.0558 7.7501C18.1511 7.88758 18.187 8.05782 18.1555 8.22225C18.124 8.38667 18.0276 8.53138 17.8883 8.62357C17.5953 8.81791 17.2014 8.74348 16.999 8.45551C16.3261 7.48458 14.2743 4.53017 9.45899 4.53017C4.75881 4.53017 2.63378 7.24888 1.94163 8.41476C1.82838 8.61301 1.61706 8.73422 1.38933 8.73154ZM12.1593 21.0836C12.1059 21.0842 12.0526 21.0781 12.0006 21.0655C8.11279 20.0992 6.66107 16.1995 6.60203 16.0373L6.59282 16.0016L6.59144 15.9967C6.54339 15.8279 5.79463 13.1969 6.97847 11.6486C7.52742 10.9343 8.36235 10.568 9.46485 10.568C10.4899 10.568 11.2294 10.8877 11.7377 11.5494C12.1554 12.0884 12.3231 12.7527 12.4847 13.3932L12.486 13.398C12.8264 14.7349 13.0722 15.4369 14.487 15.5092C15.1084 15.5407 15.5167 15.176 15.7482 14.8655C16.3742 14.019 16.4831 12.6388 16.0112 11.4204C15.4049 9.84785 13.2531 6.88294 9.45899 6.88294C7.83937 6.88294 6.35122 7.40517 5.15785 8.38661C4.17008 9.19958 3.38749 10.3474 3.01063 11.5271C2.31178 13.7236 3.22837 17.1763 3.23716 17.2078C3.2804 17.3702 3.25645 17.5431 3.17075 17.6875C3.08505 17.8319 2.94487 17.9354 2.78201 17.9746C2.44327 18.0649 2.09464 17.8671 1.99732 17.5292L1.9973 17.5291C1.95509 17.3703 0.976619 13.6887 1.78377 11.1507C2.66309 8.40005 5.37685 5.62715 9.46025 5.62715C11.3474 5.62715 13.1304 6.2708 14.6185 7.48626C15.7708 8.43156 16.7121 9.70122 17.2046 10.9705C17.8306 12.5909 17.6626 14.4097 16.7779 15.5978C16.1883 16.3902 15.3488 16.8045 14.4188 16.7595C11.996 16.6377 11.5606 14.9408 11.2432 13.703C10.9166 12.4334 10.7076 11.8212 9.46025 11.8212C8.77522 11.8212 8.2941 12.0103 7.99471 12.4019C7.58646 12.9375 7.55463 13.7749 7.59985 14.3824C7.62954 14.8057 7.70108 15.2249 7.8134 15.634C7.91306 15.8861 9.21069 19.0791 12.3185 19.8517C12.4807 19.8903 12.6208 19.9925 12.7074 20.1355C12.7939 20.2785 12.8197 20.4504 12.7791 20.6126C12.7011 20.8913 12.4478 21.0838 12.1593 21.0836ZM6.70169 20.5975C6.82426 20.7243 6.99292 20.7957 7.16899 20.7954C7.32834 20.7945 7.48178 20.7347 7.59985 20.6273C7.72373 20.5154 7.79705 20.3578 7.80305 20.1906C7.80905 20.0234 7.74721 19.861 7.63168 19.7404C6.26161 18.3002 5.48571 16.6885 5.19554 14.6626C5.05108 13.4745 5.25458 11.6784 6.30725 10.5125C7.03751 9.70374 8.09897 9.29411 9.45564 9.29411C11.0263 9.29411 12.2138 9.99658 12.9943 11.3784C13.3783 12.0724 13.6318 12.8313 13.7421 13.6173C13.7851 13.9649 14.0982 14.2135 14.4452 14.1757C14.6121 14.1605 14.7662 14.0794 14.8734 13.9501C14.9806 13.8209 15.0322 13.6541 15.0167 13.4867C15.013 13.4329 14.8681 12.1229 14.1374 10.8083C13.1304 8.99875 11.5153 8.04 9.46025 8.04C7.72254 8.04 6.33866 8.59374 5.35424 9.68315C4.0206 11.1595 3.74843 13.3068 3.93434 14.8235V14.8357C4.26555 17.1267 5.14571 18.9589 6.70169 20.5975ZM14.3371 18.9904C12.9763 18.9904 11.8193 18.6123 10.8935 17.8607C9.04292 16.3646 8.82718 13.9326 8.81599 13.8064L8.81583 13.8047C8.79818 13.5762 8.90338 13.3556 9.0918 13.2259C9.28022 13.0963 9.52323 13.0774 9.7293 13.1764C9.93538 13.2753 10.0732 13.477 10.0908 13.7055L10.0915 13.711C10.1045 13.8321 10.3139 15.771 11.7151 16.8986C12.5634 17.5784 13.6973 17.8481 15.0946 17.6905C15.4423 17.6482 15.7587 17.8957 15.8027 18.2443C15.8211 18.4114 15.7719 18.5789 15.6661 18.7093C15.5603 18.8396 15.4067 18.9219 15.2399 18.9375C14.9402 18.9726 14.6388 18.9903 14.3371 18.9904Z" fill="black"/>
</svg>
