<svg width="20" height="20" viewBox="0 0 20 20" fill="none" xmlns="http://www.w3.org/2000/svg">
<path fill-rule="evenodd" clip-rule="evenodd" d="M0.833344 9.99967C0.833344 15.0623 4.9374 19.1663 10 19.1663C15.0626 19.1663 19.1667 15.0623 19.1667 9.99967C19.1667 4.93706 15.0626 0.833008 10 0.833008C4.9374 0.833008 0.833344 4.93706 0.833344 9.99967ZM17.5 9.99967C17.5 14.1418 14.1421 17.4997 10 17.4997C5.85787 17.4997 2.50001 14.1418 2.50001 9.99967C2.50001 5.85754 5.85787 2.49967 10 2.49967C14.1421 2.49967 17.5 5.85754 17.5 9.99967ZM10.8339 14.165C10.8339 14.6252 10.4607 14.9983 10.0003 14.9983C9.5399 14.9983 9.16668 14.6252 9.16668 14.165C9.16668 13.7047 9.5399 13.3316 10.0003 13.3316C10.4607 13.3316 10.8339 13.7047 10.8339 14.165ZM10.8364 4.9983H9.16914V11.665H10.8364V4.9983Z" fill="#111111"/>
</svg>
