<svg width="20" height="22" viewBox="0 0 20 22" fill="none" xmlns="http://www.w3.org/2000/svg">
<path fill-rule="evenodd" clip-rule="evenodd" d="M16.4167 9.16699C16.4167 5.44608 14.3648 2.86353 11.7099 2.08823C11.6138 1.83949 11.4619 1.60825 11.2554 1.41422C10.5498 0.75125 9.45026 0.75125 8.74465 1.41422C8.53859 1.60782 8.38687 1.83847 8.29071 2.08659C5.63242 2.85852 3.58334 5.43542 3.58334 9.16699C3.58334 11.5814 3.09658 12.9343 2.19547 13.9147C2.04482 14.0786 1.63664 14.4541 1.36014 14.7085L1.36011 14.7085C1.22929 14.8288 1.12795 14.9221 1.09731 14.9529L0.833344 15.2206V18.3466H6.41399C6.60269 19.3201 7.13093 19.9714 8.08619 20.5544C9.26131 21.2715 10.7387 21.2715 11.9138 20.5544C12.7569 20.0399 13.3221 19.2493 13.5515 18.3466H19.1667V15.2206L18.9027 14.9529C18.875 14.9248 18.7779 14.8353 18.6511 14.7183L18.6506 14.7178L18.6506 14.7178L18.6506 14.7178L18.6505 14.7177C18.3748 14.4634 17.9587 14.0796 17.8058 13.9125C16.9041 12.9275 16.4167 11.5729 16.4167 9.16699ZM11.592 18.3466H8.33041C8.45992 18.5875 8.68066 18.7694 9.04119 18.9894C9.62992 19.3487 10.3701 19.3487 10.9588 18.9894C11.2315 18.8231 11.4445 18.6029 11.592 18.3466ZM16.4535 15.1504C16.6464 15.3612 17.0598 15.7463 17.3333 15.9979V16.5132H2.66668V15.9983C2.93808 15.7497 3.35274 15.3648 3.54529 15.1553C4.76971 13.8231 5.41668 12.025 5.41668 9.16699C5.41668 5.7019 7.55505 3.67834 10 3.67834C12.4381 3.67834 14.5833 5.71234 14.5833 9.16699C14.5833 12.0158 15.2305 13.8145 16.4535 15.1504Z" fill="white"/>
<mask id="mask0_203_5542" style="mask-type:luminance" maskUnits="userSpaceOnUse" x="0" y="0" width="20" height="22">
<path fill-rule="evenodd" clip-rule="evenodd" d="M16.4167 9.16699C16.4167 5.44608 14.3648 2.86353 11.7099 2.08823C11.6138 1.83949 11.4619 1.60825 11.2554 1.41422C10.5498 0.75125 9.45026 0.75125 8.74465 1.41422C8.53859 1.60782 8.38687 1.83847 8.29071 2.08659C5.63242 2.85852 3.58334 5.43542 3.58334 9.16699C3.58334 11.5814 3.09658 12.9343 2.19547 13.9147C2.04482 14.0786 1.63664 14.4541 1.36014 14.7085L1.36011 14.7085C1.22929 14.8288 1.12795 14.9221 1.09731 14.9529L0.833344 15.2206V18.3466H6.41399C6.60269 19.3201 7.13093 19.9714 8.08619 20.5544C9.26131 21.2715 10.7387 21.2715 11.9138 20.5544C12.7569 20.0399 13.3221 19.2493 13.5515 18.3466H19.1667V15.2206L18.9027 14.9529C18.875 14.9248 18.7779 14.8353 18.6511 14.7183L18.6506 14.7178L18.6506 14.7178L18.6506 14.7178L18.6505 14.7177C18.3748 14.4634 17.9587 14.0796 17.8058 13.9125C16.9041 12.9275 16.4167 11.5729 16.4167 9.16699ZM11.592 18.3466H8.33041C8.45992 18.5875 8.68066 18.7694 9.04119 18.9894C9.62992 19.3487 10.3701 19.3487 10.9588 18.9894C11.2315 18.8231 11.4445 18.6029 11.592 18.3466ZM16.4535 15.1504C16.6464 15.3612 17.0598 15.7463 17.3333 15.9979V16.5132H2.66668V15.9983C2.93808 15.7497 3.35274 15.3648 3.54529 15.1553C4.76971 13.8231 5.41668 12.025 5.41668 9.16699C5.41668 5.7019 7.55505 3.67834 10 3.67834C12.4381 3.67834 14.5833 5.71234 14.5833 9.16699C14.5833 12.0158 15.2305 13.8145 16.4535 15.1504Z" fill="white"/>
</mask>
<g mask="url(#mask0_203_5542)">
<rect x="-1" width="22" height="22" fill="#111111"/>
</g>
</svg>
